<svg width="1200" height="630" viewBox="0 0 1200 630" fill="none" xmlns="http://www.w3.org/2000/svg">
  <rect width="1200" height="630" rx="44" fill="#FFF9EE"/>
  <rect x="28" y="28" width="1144" height="574" rx="36" fill="url(#paint0_linear_1_2)"/>
  <circle cx="220" cy="110" r="92" fill="#FFD26A" fill-opacity="0.4"/>
  <circle cx="1000" cy="540" r="128" fill="#7ED7C1" fill-opacity="0.32"/>
  <circle cx="1040" cy="128" r="62" fill="#FF7A59" fill-opacity="0.36"/>
  <rect x="108" y="122" width="984" height="386" rx="38" fill="#FFF8EA" fill-opacity="0.94"/>
  <rect x="160" y="160" width="170" height="170" rx="30" fill="#FFD26A"/>
  <rect x="184" y="190" width="122" height="18" rx="9" fill="#7C4A00"/>
  <rect x="184" y="230" width="122" height="18" rx="9" fill="#7C4A00"/>
  <rect x="184" y="270" width="92" height="18" rx="9" fill="#7C4A00"/>
  <rect x="160" y="360" width="170" height="96" rx="26" fill="#FFB84C"/>
  <text x="930" y="250" font-family="'Baloo Bhaijaan 2', sans-serif" font-size="128" font-weight="800" fill="#6E3D12" text-anchor="end">الميدان</text>
  <text x="930" y="340" font-family="'Cairo', sans-serif" font-size="44" font-weight="700" fill="#8E5325" text-anchor="end">لعبة أسئلة جماعية مباشرة</text>
  <text x="930" y="410" font-family="'Cairo', sans-serif" font-size="32" font-weight="600" fill="#AE6C38" text-anchor="end">كوّن غرفة، اختر لونك، وابدأ التحدي</text>
  <rect x="768" y="454" width="176" height="68" rx="22" fill="#7ED7C1"/>
  <text x="856" y="500" font-family="'Cairo', sans-serif" font-size="34" font-weight="800" fill="#14574B" text-anchor="middle">4 لاعبين</text>
  <rect x="560" y="454" width="176" height="68" rx="22" fill="#FF7A59"/>
  <text x="648" y="500" font-family="'Cairo', sans-serif" font-size="34" font-weight="800" fill="#6B1F0D" text-anchor="middle">دردشة</text>
  <rect x="352" y="454" width="176" height="68" rx="22" fill="#FFD26A"/>
  <text x="440" y="500" font-family="'Cairo', sans-serif" font-size="34" font-weight="800" fill="#7C4A00" text-anchor="middle">فايربيس</text>
  <defs>
    <linearGradient id="paint0_linear_1_2" x1="104" y1="72" x2="1072" y2="558" gradientUnits="userSpaceOnUse">
      <stop stop-color="#FFF0C9"/>
      <stop offset="0.48" stop-color="#FFE7BE"/>
      <stop offset="1" stop-color="#FDE7D9"/>
    </linearGradient>
  </defs>
</svg>
