<svg width="1200" height="630" viewBox="0 0 1200 630" fill="none" xmlns="http://www.w3.org/2000/svg">
  <defs>
    <linearGradient id="bg" x1="80" y1="40" x2="1120" y2="590" gradientUnits="userSpaceOnUse">
      <stop stop-color="#0F172A"/>
      <stop offset="1" stop-color="#111827"/>
    </linearGradient>
    <linearGradient id="glow" x1="310" y1="120" x2="920" y2="500" gradientUnits="userSpaceOnUse">
      <stop stop-color="#1F2937"/>
      <stop offset="1" stop-color="#0F172A"/>
    </linearGradient>
    <filter id="shadow" x="-20%" y="-20%" width="140%" height="140%">
      <feDropShadow dx="0" dy="18" stdDeviation="16" flood-color="#000000" flood-opacity="0.28"/>
    </filter>
  </defs>

  <rect width="1200" height="630" rx="42" fill="url(#bg)"/>
  <rect x="46" y="46" width="1108" height="538" rx="34" fill="url(#glow)" stroke="#1F2937" stroke-width="2"/>

  <g filter="url(#shadow)">
    <polygon points="248,208 280,176 344,176 376,208 344,240 280,240" fill="#16A34A" stroke="#0B1220" stroke-width="8"/>
    <polygon points="320,250 352,218 416,218 448,250 416,282 352,282" fill="#F8FAFC" stroke="#0B1220" stroke-width="8"/>
    <polygon points="392,208 424,176 488,176 520,208 488,240 424,240" fill="#EF4444" stroke="#0B1220" stroke-width="8"/>
    <polygon points="464,250 496,218 560,218 592,250 560,282 496,282" fill="#FACC15" stroke="#0B1220" stroke-width="8"/>
    <polygon points="536,208 568,176 632,176 664,208 632,240 568,240" fill="#16A34A" stroke="#0B1220" stroke-width="8"/>
    <polygon points="608,250 640,218 704,218 736,250 704,282 640,282" fill="#F8FAFC" stroke="#0B1220" stroke-width="8"/>
    <polygon points="680,208 712,176 776,176 808,208 776,240 712,240" fill="#EF4444" stroke="#0B1220" stroke-width="8"/>
    <polygon points="752,250 784,218 848,218 880,250 848,282 784,282" fill="#16A34A" stroke="#0B1220" stroke-width="8"/>
  </g>

  <text x="600" y="390" text-anchor="middle" fill="#F8FAFC" font-size="88" font-weight="900" font-family="Tajawal, Arial, sans-serif">ميادين الحروف</text>
  <text x="600" y="458" text-anchor="middle" fill="#CBD5E1" font-size="36" font-weight="700" font-family="Tajawal, Arial, sans-serif">غرفة فرق مباشرة مع مدير وبث حي لخلية الحروف</text>

  <rect x="390" y="500" width="420" height="56" rx="28" fill="#111827" stroke="#334155" stroke-width="2"/>
  <text x="600" y="537" text-anchor="middle" fill="#F8FAFC" font-size="26" font-weight="800" font-family="Tajawal, Arial, sans-serif">انضم للغرفة وابدأ التحدي</text>
</svg>
